<?xml version="1.0" standalone="no"?>
<!DOCTYPE svg PUBLIC "-//W3C//DTD SVG 20010904//EN"
 "http://www.w3.org/TR/2001/REC-SVG-20010904/DTD/svg10.dtd">
<svg version="1.0" xmlns="http://www.w3.org/2000/svg"
 width="660.000000pt" height="660.000000pt" viewBox="0 0 660.000000 660.000000"
 preserveAspectRatio="xMidYMid meet">
<metadata>
Created by potrace 1.11, written by Peter Selinger 2001-2013
</metadata>
<g transform="translate(0.000000,660.000000) scale(0.100000,-0.100000)"
fill="#000000" stroke="none">
<path d="M1795 5743 c-17 -49 -35 -163 -56 -353 -11 -103 -3 -184 22 -230 4
-8 17 -34 28 -57 l21 -42 -103 49 c-56 26 -138 60 -182 74 -89 29 -321 68
-433 72 -51 2 -83 9 -105 23 -37 23 -137 40 -137 23 0 -6 21 -20 46 -31 62
-28 93 -56 185 -166 102 -121 172 -192 293 -295 100 -87 205 -160 264 -185 17
-8 32 -16 32 -19 0 -3 -39 -17 -87 -31 -143 -43 -228 -90 -313 -175 -194 -192
-259 -302 -135 -225 74 46 127 67 188 75 74 11 194 4 264 -16 28 -8 69 -14 91
-14 21 0 52 -4 68 -9 82 -24 147 -31 336 -33 l207 -2 46 32 c25 18 48 32 51
32 4 0 23 14 44 30 37 29 60 38 60 23 0 -5 -27 -30 -60 -56 -33 -27 -60 -52
-60 -57 0 -7 -346 -341 -451 -435 -58 -53 -236 -245 -290 -315 -23 -30 -44
-57 -46 -60 -12 -13 -193 208 -193 235 0 9 -8 19 -17 22 -10 4 -20 10 -24 15
-9 14 -172 190 -259 281 -47 48 -117 136 -157 194 -84 125 -125 168 -147 160
-13 -5 -16 -26 -17 -129 -1 -351 -30 -1042 -44 -1056 -4 -4 -43 -7 -88 -8
-139 -1 -232 -28 -257 -73 -26 -50 -3 -129 42 -138 31 -6 32 -12 18 -64 -11
-39 -41 -69 -178 -179 -99 -79 -143 -130 -164 -190 -18 -50 -41 -259 -40 -360
0 -103 12 -372 18 -406 7 -48 50 -64 173 -64 56 0 101 -1 101 -2 -2 -24 -49
-171 -85 -263 -74 -192 -80 -217 -60 -249 24 -36 35 -33 35 12 0 34 17 99 51
197 6 17 17 51 25 78 8 26 21 47 28 47 7 0 25 17 39 38 36 56 172 215 251 295
21 21 39 44 40 51 1 6 6 18 11 26 10 16 170 151 215 182 16 11 20 17 10 17 -8
1 -28 -8 -45 -19 -16 -11 -34 -20 -39 -20 -12 0 31 32 87 65 26 15 46 29 44
31 -7 7 -108 -48 -156 -83 -24 -18 -49 -33 -55 -33 -6 0 12 16 39 36 63 45
231 144 244 144 5 0 13 4 16 10 9 15 -74 -17 -127 -50 -26 -17 -51 -30 -55
-30 -13 0 91 73 145 101 31 17 62 35 67 42 15 18 52 37 72 38 11 0 13 3 5 6
-13 5 -134 -42 -199 -78 -21 -12 -29 -14 -19 -5 19 16 99 64 199 120 27 15 47
30 44 32 -5 5 -99 -41 -186 -90 -98 -56 -82 -37 22 26 108 65 194 106 369 174
127 49 179 80 71 43 -67 -23 -74 -23 -49 -4 11 8 17 15 15 15 -10 0 -134 -52
-182 -77 -27 -13 -51 -22 -54 -19 -7 7 129 74 196 97 59 21 85 24 61 9 -8 -5
-10 -10 -5 -10 11 0 44 20 33 20 -4 0 5 13 21 30 22 25 48 36 156 64 l130 34
-80 -5 c-92 -6 -96 2 -9 18 80 14 121 28 127 42 3 9 -7 11 -33 9 -77 -8 -73 4
10 30 47 14 98 29 114 32 15 4 30 15 33 25 3 10 16 24 29 31 13 8 22 15 20 17
-2 2 -19 -5 -37 -16 -19 -12 -29 -21 -24 -22 6 0 -12 -6 -40 -14 -56 -15 -69
-13 -33 6 12 6 46 30 73 53 28 23 67 52 87 66 20 13 35 27 33 31 -3 3 14 21
36 39 27 22 37 36 31 42 -7 7 -20 4 -39 -9 -51 -36 -58 -36 -28 -3 31 34 22
33 -30 -6 -16 -12 -41 -27 -55 -34 l-25 -13 24 27 c13 14 58 49 100 78 42 29
108 78 148 110 39 32 76 58 83 58 6 0 47 36 90 80 43 44 80 80 82 80 2 0 3
-47 2 -105 -1 -80 -5 -110 -17 -123 -42 -46 -48 -123 -16 -190 21 -43 22 -49
10 -206 -7 -88 -16 -255 -21 -371 -18 -394 -17 -435 6 -435 10 0 14 5 10 15
-3 10 2 19 17 26 21 10 22 15 24 192 3 230 4 247 15 253 11 7 10 68 -1 79 -5
6 -6 28 -2 51 5 24 4 49 -2 59 -6 12 -5 42 3 90 7 41 10 84 7 97 -8 31 17 65
36 49 10 -8 22 -8 40 -2 14 5 27 8 29 5 16 -16 143 64 153 97 4 10 22 37 41
60 19 22 34 48 34 57 0 10 14 46 30 80 53 112 36 250 -38 309 -43 34 -84 58
-94 55 -5 -1 -8 5 -8 13 0 8 -6 15 -12 15 -7 0 -19 4 -27 9 -11 7 -7 18 21 53
50 61 112 158 126 193 23 63 24 146 2 209 -11 33 -18 61 -17 63 5 4 183 -177
229 -232 18 -23 40 -49 48 -59 8 -10 34 -38 58 -63 23 -25 42 -51 42 -57 0 -6
37 -55 83 -108 127 -148 228 -285 269 -363 11 -22 29 -51 39 -64 27 -34 23
-53 -17 -81 -19 -14 -48 -35 -64 -47 -29 -24 -60 -30 -60 -13 0 5 7 7 15 4 8
-4 15 -2 15 3 0 21 -31 8 -53 -21 -109 -145 -141 -315 -79 -425 32 -58 56 -77
116 -96 40 -12 61 -13 119 -3 61 10 76 17 108 49 21 21 49 62 63 91 23 49 24
59 16 128 -9 73 -45 216 -75 293 -8 20 -15 39 -15 42 0 7 104 73 133 84 15 6
54 28 85 49 62 42 112 67 153 77 26 6 27 5 34 -47 7 -52 37 -120 82 -186 37
-55 187 -208 232 -236 53 -34 212 -90 316 -111 44 -10 104 -30 132 -46 64 -35
84 -37 54 -5 -13 14 -20 30 -16 36 4 6 -13 33 -39 60 -25 27 -52 62 -58 77
-24 54 -90 144 -117 158 -25 12 -59 44 -50 46 2 0 42 4 89 9 47 4 104 10 128
13 23 2 45 0 48 -4 8 -13 18 -11 41 10 20 19 21 18 69 -6 27 -14 68 -27 91
-29 46 -4 142 -33 190 -57 30 -16 80 -73 85 -98 2 -8 10 -20 18 -26 13 -11 13
-12 -2 -7 -12 4 -18 1 -18 -10 0 -17 -52 -130 -71 -152 -6 -8 -21 -14 -32 -14
-16 0 -18 3 -9 12 17 17 15 70 -5 98 -31 44 -56 59 -101 60 -78 0 -134 -44
-136 -108 -1 -49 23 -86 82 -123 42 -26 54 -29 134 -29 103 0 149 18 191 74
41 53 48 80 37 134 -22 102 -50 151 -113 202 -33 27 -71 51 -85 55 -14 3 -36
15 -49 25 -13 10 -56 24 -96 30 -110 19 -118 24 -61 40 27 7 59 19 71 26 32
20 103 20 142 0 35 -19 205 -41 301 -40 30 0 113 6 183 13 71 7 130 11 133 9
9 -10 6 -514 -4 -538 -6 -16 -6 -46 -1 -83 5 -32 7 -74 4 -95 -6 -41 -6 -168
1 -219 3 -25 0 -33 -11 -33 -18 0 -20 -26 -2 -34 10 -5 10 -7 0 -12 -16 -7
-17 -50 -3 -59 6 -4 22 1 36 10 13 9 29 13 34 10 13 -8 13 -28 10 365 -2 305
0 352 16 399 14 45 16 74 10 187 -6 133 -6 134 16 138 262 50 420 125 555 265
62 63 73 95 73 207 l0 80 -52 57 c-68 73 -92 84 -186 86 -79 2 -128 -10 -236
-59 -30 -14 -61 -20 -82 -18 -38 4 -42 -6 -18 -40 21 -31 53 -28 173 13 155
54 270 47 315 -17 24 -34 21 -143 -6 -214 -23 -59 -84 -130 -131 -151 -12 -5
-62 -28 -112 -51 -193 -87 -228 -102 -244 -102 -9 0 -41 -7 -71 -15 -90 -25
-428 -47 -515 -33 -27 4 -75 9 -105 11 -30 2 -67 10 -82 17 -24 11 -28 19 -28
54 0 111 79 257 214 400 25 26 46 52 46 58 0 5 15 15 34 23 19 8 38 20 42 26
3 6 27 21 53 32 52 24 234 86 239 82 2 -2 -8 -14 -22 -28 -28 -28 -34 -65 -14
-85 7 -7 31 -12 55 -12 52 0 83 28 83 77 0 32 12 43 25 23 10 -16 35 -12 35 6
0 8 -13 27 -29 42 l-29 27 -6 170 c-3 94 -8 196 -12 228 -4 36 -2 57 4 57 6 0
12 -12 14 -27 3 -27 4 -26 63 29 33 31 66 67 74 80 7 14 41 39 79 57 37 18 84
47 104 63 36 28 42 40 62 128 3 14 19 33 36 42 16 9 30 24 30 33 0 19 9 20
-105 -15 -150 -46 -225 -111 -225 -193 0 -28 -9 -42 -50 -81 -28 -25 -53 -46
-55 -46 -2 0 -3 24 -3 53 0 35 -7 67 -21 94 -11 23 -21 49 -21 57 0 8 -4 16
-8 18 -5 2 -15 16 -23 32 -23 48 -40 45 -33 -7 5 -32 -1 -68 -21 -135 -28 -96
-27 -116 6 -164 11 -14 19 -34 19 -43 0 -9 -67 -83 -149 -164 -259 -255 -530
-544 -618 -660 -3 -5 -23 18 -106 123 -34 43 -118 144 -187 225 -69 80 -147
173 -175 206 -27 33 -84 99 -126 146 -99 112 -109 127 -125 202 -27 125 -6
329 46 462 5 11 23 63 41 115 36 106 97 260 109 275 4 6 11 21 15 35 4 14 23
49 42 79 21 33 31 57 25 63 -5 5 -15 0 -24 -14 -27 -41 -101 -112 -183 -176
-44 -35 -87 -69 -95 -75 -9 -7 -36 -27 -61 -44 -160 -110 -375 -337 -506 -533
-67 -101 -64 -94 -127 -282 -41 -121 -59 -193 -67 -264 -6 -54 -13 -103 -16
-108 -3 -5 -5 -37 -4 -72 1 -35 -2 -64 -6 -64 -9 0 -226 288 -302 400 -71 104
-91 131 -150 199 -28 32 -51 62 -51 65 0 9 -94 128 -133 168 -123 129 -321
364 -387 460 -43 63 -48 53 -49 -98 -1 -84 -5 -114 -15 -124 -12 -9 -19 -2
-42 42 -30 60 -100 144 -200 238 -38 36 -99 94 -136 130 -36 36 -96 93 -132
127 -36 34 -76 84 -90 112 -14 27 -30 52 -36 56 -5 3 -10 42 -10 86 0 43 -4
79 -9 79 -5 0 -16 -21 -26 -47z m78 -278 c15 -25 27 -50 27 -55 0 -5 13 -16
28 -24 16 -8 42 -31 59 -50 17 -20 33 -36 36 -36 15 0 195 -182 224 -227 18
-29 49 -64 68 -79 19 -14 35 -31 35 -37 0 -6 16 -27 35 -47 28 -29 36 -45 39
-84 2 -26 9 -53 16 -59 10 -10 11 -6 6 16 -3 15 -4 27 -1 27 11 0 33 -65 38
-115 l6 -50 -14 33 c-8 17 -20 32 -25 32 -13 0 -13 -1 5 -44 9 -20 13 -47 9
-60 -3 -15 1 -34 11 -49 11 -17 13 -27 6 -32 -15 -8 -31 3 -31 21 0 8 -4 12
-10 9 -5 -3 -10 -2 -10 3 0 5 -9 12 -20 15 -11 3 -20 2 -20 -3 0 -16 -45 -19
-60 -5 -12 13 -12 15 0 15 9 0 8 5 -6 15 -10 8 -23 14 -29 15 -5 0 -3 -4 5
-10 8 -5 12 -12 8 -15 -3 -4 -17 0 -30 8 -40 26 -68 30 -68 12 0 -9 5 -13 10
-10 6 3 10 2 10 -3 0 -6 20 -19 45 -31 39 -18 60 -41 38 -41 -13 0 -157 72
-167 84 -15 17 -95 51 -103 43 -3 -4 1 -15 10 -25 10 -10 17 -29 17 -43 1 -23
1 -23 15 -5 15 19 15 19 15 -3 0 -23 35 -60 57 -61 7 0 10 -6 8 -13 -3 -6 8
-18 24 -25 21 -9 31 -21 33 -40 2 -15 8 -25 13 -22 6 3 9 12 8 21 -3 23 43 31
59 11 10 -12 10 -16 1 -19 -7 -3 -13 -13 -13 -24 0 -16 -8 -19 -52 -20 -53 -1
-53 -1 -18 -11 19 -5 38 -15 42 -21 6 -9 8 -9 8 0 0 9 40 12 58 4 1 0 -7 -18
-18 -38 -24 -45 -25 -57 -5 -49 8 3 15 2 15 -3 0 -10 -42 -27 -85 -35 -30 -5
-30 -5 -5 7 35 17 39 41 5 33 -19 -5 -25 -3 -26 11 0 10 -3 13 -5 7 -3 -7 -13
-10 -23 -7 -14 3 -20 -2 -23 -21 -5 -24 2 -31 25 -27 4 0 7 -3 7 -8 0 -5 -34
-8 -75 -7 -61 2 -78 6 -90 22 -8 11 -15 14 -15 7 0 -14 -28 -17 -55 -7 -25 10
2 23 50 25 38 1 38 2 -15 11 -30 5 -73 10 -95 11 -22 0 -43 5 -47 11 -6 8 -11
7 -16 -2 -11 -16 -53 -17 -117 -2 -130 30 -169 34 -297 35 -97 0 -141 -4 -149
-12 -7 -7 -19 -13 -26 -13 -24 0 4 38 50 67 23 15 64 46 90 70 55 48 121 75
233 97 44 8 92 19 107 25 16 6 43 11 62 11 40 0 65 8 65 22 0 18 -28 38 -54
38 -14 0 -29 7 -34 15 -4 9 -20 17 -34 18 -30 2 -78 40 -78 61 0 8 -13 17 -28
21 -15 3 -41 21 -56 40 -16 19 -33 32 -39 28 -5 -3 -8 0 -5 7 4 14 -71 60 -97
60 -7 0 -17 9 -20 20 -3 11 -13 20 -21 20 -8 0 -14 8 -14 18 0 23 -29 64 -40
57 -5 -3 -11 4 -15 15 -3 11 -9 21 -13 21 -4 1 -16 3 -27 4 -11 1 -37 18 -57
38 l-37 36 30 32 c30 32 32 33 117 33 66 0 106 -6 167 -26 167 -54 265 -95
278 -115 4 -7 12 -13 18 -13 10 0 63 -34 160 -102 13 -9 37 -20 52 -24 28 -6
28 -6 25 32 -2 31 -7 40 -24 42 -28 4 -72 52 -115 127 -39 66 -48 88 -79 189
l-20 69 22 78 c13 44 25 79 28 79 3 0 17 -20 33 -45z m2547 -312 c0 -4 -8 -16
-19 -27 -28 -32 -111 -268 -111 -319 0 -12 -5 -28 -11 -34 -16 -16 -24 -149
-11 -166 6 -7 14 -44 17 -82 3 -39 11 -88 16 -110 6 -22 14 -59 19 -83 5 -23
15 -52 22 -65 7 -12 14 -35 16 -52 5 -46 22 -95 34 -95 6 0 8 -6 5 -14 -3 -7
-1 -18 4 -23 5 -5 12 -55 15 -111 6 -99 6 -102 -25 -161 -17 -33 -31 -67 -31
-74 0 -32 -277 -337 -306 -337 -6 0 -19 -9 -29 -20 -10 -11 -22 -20 -27 -20
-15 0 -71 -43 -102 -77 -16 -18 -35 -33 -43 -33 -7 0 -16 -6 -19 -14 -3 -8
-11 -13 -18 -10 -7 3 -43 -16 -81 -41 -38 -25 -72 -45 -75 -45 -3 0 -21 31
-40 68 -19 37 -47 83 -62 102 -16 19 -28 38 -28 42 0 7 -32 61 -78 133 -6 11
-24 42 -40 68 -15 27 -38 64 -52 82 -95 128 -165 211 -235 280 -44 45 -121
128 -172 185 -51 58 -157 169 -237 248 -170 170 -170 168 -168 365 1 149 9
214 27 221 21 8 49 -19 75 -71 41 -81 213 -283 241 -283 5 0 9 -6 9 -14 0 -18
107 -126 125 -126 7 0 17 -10 21 -22 11 -36 77 -127 97 -134 9 -3 17 -14 17
-25 0 -10 7 -19 15 -19 8 0 15 -6 15 -13 0 -7 23 -43 50 -79 28 -37 50 -71 50
-77 0 -5 14 -19 30 -31 17 -12 30 -29 30 -39 0 -20 75 -124 93 -130 23 -7 76
-74 83 -105 4 -17 17 -40 30 -51 14 -12 26 -36 29 -60 11 -71 14 -76 43 -69
42 10 47 20 30 62 -13 33 -13 43 -2 63 8 14 13 54 13 94 -1 69 -1 69 -15 40
-31 -62 -7 118 32 243 20 64 41 137 46 162 6 25 16 54 23 65 7 11 16 31 20 43
4 13 20 43 36 67 16 24 29 49 29 56 0 13 33 75 89 173 12 22 33 48 47 58 13
11 24 26 24 34 0 24 49 77 193 209 42 38 77 75 77 82 0 7 20 26 45 43 25 17
53 42 61 56 15 22 44 34 44 17z m1895 -388 c-16 -8 -37 -14 -45 -14 -8 0 1 7
20 14 46 18 64 17 25 0z m-6 -57 c-16 -32 -40 -58 -52 -58 -6 0 -1 10 10 23
11 12 23 30 26 40 4 9 11 17 17 17 7 0 7 -7 -1 -22z m-104 -51 c-21 -18 -48
-42 -59 -54 -11 -13 -24 -23 -29 -23 -15 0 22 39 73 76 57 43 67 43 15 1z
m-3700 -57 c3 -5 1 -10 -4 -10 -6 0 -11 5 -11 10 0 6 2 10 4 10 3 0 8 -4 11
-10z m3405 -167 c-11 -17 -11 -17 -6 0 3 10 6 24 7 30 0 9 2 9 5 0 3 -7 0 -20
-6 -30z m-3220 -196 c33 -32 60 -59 60 -61 0 -2 -25 -6 -55 -8 -41 -4 -66 -13
-99 -36 -24 -18 -46 -32 -48 -32 -3 0 -3 91 0 177 l2 52 40 -17 c21 -9 66 -43
100 -75z m-1470 48 c0 -2 -10 -10 -22 -16 -21 -11 -22 -11 -9 4 13 16 31 23
31 12z m4655 -149 c10 -168 10 -167 -83 -190 -144 -35 -232 -80 -361 -184 -23
-19 -41 -29 -41 -23 0 6 5 11 10 11 6 0 21 24 34 54 13 30 35 61 48 70 36 23
318 310 341 346 35 55 44 40 52 -84z m-3384 -24 c2 -67 0 -75 -25 -101 -15
-15 -38 -59 -52 -97 -27 -75 -26 -115 4 -155 10 -13 28 -46 40 -74 19 -45 21
-60 14 -145 l-7 -94 -170 -133 c-93 -73 -192 -152 -220 -176 -70 -60 -155
-120 -155 -110 0 5 20 24 44 42 53 37 189 161 179 161 -5 0 -45 -32 -90 -71
-88 -74 -102 -76 -53 -4 40 59 38 66 -7 24 -21 -20 -74 -60 -118 -89 -206
-138 -305 -207 -360 -251 -32 -27 -62 -46 -65 -43 -5 6 93 101 147 143 15 12
37 28 48 37 19 14 19 14 -5 3 -14 -7 -92 -66 -173 -131 -82 -65 -151 -118
-153 -118 -12 0 190 177 267 233 13 10 18 16 12 15 -39 -9 -216 -151 -328
-263 -123 -122 -165 -171 -257 -297 -43 -59 -85 -104 -92 -97 -5 5 42 67 159
210 33 41 80 100 104 132 25 32 65 76 90 98 25 21 41 39 36 39 -18 0 -177
-161 -261 -265 -44 -55 -119 -153 -168 -217 -48 -65 -89 -118 -92 -118 -4 0
46 74 101 150 11 15 40 56 64 91 25 35 59 82 78 105 47 58 41 61 -12 6 -51
-54 -60 -51 -14 5 18 21 -18 -14 -80 -77 -73 -75 -111 -108 -111 -96 0 10 13
35 28 55 43 55 47 63 26 59 -21 -3 -21 0 -9 127 10 108 6 250 -9 318 -6 25 -5
37 3 37 6 0 11 9 11 20 0 11 -6 20 -12 20 -9 0 -9 3 -3 8 15 10 19 78 6 87 -6
3 -9 9 -7 13 2 4 7 54 10 111 4 57 8 107 10 110 2 3 1 39 -3 79 -4 40 -4 75
-1 77 3 2 5 25 5 52 -1 26 3 56 8 65 8 12 7 24 -3 43 -11 20 -11 33 -3 58 13
35 6 198 -11 270 -7 31 9 38 17 6 4 -16 11 -19 26 -14 16 5 24 -2 40 -32 11
-21 42 -60 70 -87 28 -27 51 -55 51 -61 0 -7 13 -18 30 -25 16 -7 28 -16 25
-20 -3 -5 12 -26 34 -47 37 -36 111 -135 111 -149 0 -6 50 -56 170 -168 30
-29 68 -57 84 -64 25 -11 28 -16 23 -47 -4 -26 -2 -35 8 -35 14 0 45 26 45 39
0 19 204 211 224 211 8 0 24 16 35 36 12 20 25 34 28 30 9 -8 43 24 43 41 0 7
7 13 15 13 8 0 15 7 15 15 0 8 4 14 8 13 5 -2 93 83 196 187 275 280 272 276
297 323 12 23 26 39 30 35 4 -5 9 -41 10 -81z m1997 -3 c-6 -11 25 -39 43 -39
11 0 19 -6 19 -14 0 -8 7 -22 16 -30 8 -9 13 -16 9 -16 -4 0 3 -12 14 -26 12
-15 21 -33 21 -40 0 -8 6 -14 13 -14 9 0 9 -2 0 -8 -13 -8 -6 -52 8 -52 9 0
13 21 10 50 -1 9 1 11 6 5 4 -5 14 -10 21 -11 27 -2 31 -5 38 -26 3 -12 29
-44 56 -71 34 -34 46 -53 39 -60 -5 -5 -74 -13 -153 -18 -79 -4 -154 -11 -166
-15 l-24 -7 17 33 c14 27 16 48 11 104 -17 183 -19 269 -7 265 7 -3 11 -7 9
-10z m-1762 -82 c38 -33 47 -120 20 -194 -17 -47 -75 -147 -110 -190 -23 -27
-31 -30 -54 -23 -50 14 -82 33 -82 47 0 8 4 12 9 9 10 -7 18 39 27 164 8 113
14 132 57 175 41 41 93 46 133 12z m-257 -224 c0 -39 -3 -51 -8 -38 -8 19 -3
95 5 95 2 0 4 -26 3 -57z m3411 8 c0 -5 -9 -11 -20 -14 -22 -6 -26 3 -8 21 11
11 28 7 28 -7z m-1005 -119 c3 -15 17 -36 29 -47 13 -11 28 -30 35 -42 6 -13
18 -23 26 -23 17 0 34 -30 27 -49 -3 -8 1 -12 9 -9 9 3 20 -10 31 -35 21 -46
14 -66 -13 -41 -17 15 -19 15 -19 1 0 -9 5 -19 11 -22 5 -4 15 -19 22 -33 l11
-27 4 28 c2 18 9 27 21 27 10 0 28 12 42 26 13 14 36 32 51 40 15 8 34 27 42
43 9 16 47 62 87 102 81 84 80 79 -8 -45 -35 -48 -66 -100 -69 -115 -4 -14
-15 -57 -25 -96 -23 -84 -24 -107 -4 -146 l16 -30 -28 7 c-15 3 -43 10 -62 16
-39 12 -278 132 -300 152 -21 16 -115 56 -135 56 -21 0 -20 14 1 31 33 28 96
123 120 183 14 33 29 66 35 73 14 18 35 5 43 -25z m-162 -34 c24 1 27 -2 27
-33 0 -30 -9 -44 -57 -90 -70 -66 -128 -90 -243 -100 -78 -7 -87 -10 -109 -37
-13 -17 -24 -36 -24 -44 0 -10 -4 -11 -13 -3 -19 16 -36 -21 -20 -43 10 -13
16 -14 24 -6 8 8 13 7 18 -5 7 -21 75 -24 71 -4 -1 9 21 13 81 15 45 2 82 7
82 12 0 6 -12 10 -26 10 -16 0 -24 5 -21 13 5 17 100 11 206 -14 85 -20 210
-73 294 -127 53 -34 52 -35 -53 -48 -30 -4 -59 -10 -65 -14 -27 -18 -141 -35
-241 -35 -106 0 -114 2 -177 33 -70 35 -90 52 -61 52 13 0 11 4 -7 19 -13 10
-34 18 -46 16 -13 -1 -23 2 -23 8 0 6 -3 7 -6 4 -4 -4 -1 -14 7 -23 12 -14 11
-16 -6 -13 -12 3 -21 14 -23 29 -5 43 -12 54 -23 43 -7 -7 -19 -6 -40 4 -28
14 -41 36 -18 31 6 -2 14 3 16 10 3 7 -3 12 -15 12 -23 0 -37 47 -19 69 6 7
12 19 13 26 1 8 10 24 20 37 30 39 145 138 161 138 7 0 33 9 55 20 23 11 49
20 58 20 9 0 20 4 26 9 12 12 59 17 109 12 22 -2 52 -3 68 -3z m-2164 -82 c13
-16 4 -46 -14 -46 -7 0 -15 14 -17 30 -5 32 11 40 31 16z m117 -113 c67 -101
75 -126 77 -220 3 -141 -58 -241 -166 -271 -21 -6 -44 -9 -51 -6 -21 8 -56 92
-55 132 l2 37 7 -35 7 -35 2 36 c1 31 5 38 26 43 36 9 45 1 45 -41 0 -35 1
-35 32 -29 41 8 48 20 48 82 0 61 -19 83 -79 91 -37 5 -39 7 -30 30 5 13 9 61
9 105 0 76 2 82 33 118 17 21 34 39 37 39 3 1 28 -34 56 -76z m1608 -222 c27
-30 0 -36 -31 -7 -26 24 -26 26 -7 26 12 0 29 -9 38 -19z m-107 -98 c-4 -3 0
-15 10 -25 20 -23 13 -32 -12 -14 -17 12 -16 46 1 46 4 0 4 -3 1 -7z m113 -23
c10 -13 66 -40 148 -71 45 -17 95 -40 110 -53 15 -12 46 -34 69 -50 43 -28
159 -153 151 -161 -2 -2 -28 2 -58 10 -30 9 -89 18 -130 22 -59 5 -89 14 -140
41 -63 34 -140 97 -140 115 0 4 -15 24 -34 43 -38 39 -60 100 -25 68 30 -27
32 -10 4 25 l-27 31 34 -7 c18 -3 35 -9 38 -13z m-2405 -90 c-16 -16 -34 -30
-39 -30 -10 1 53 60 63 60 3 0 -8 -13 -24 -30z m1771 -7 c-2 -3 2 -23 10 -45
7 -22 11 -50 8 -63 -3 -13 0 -33 6 -45 22 -41 14 -86 -24 -139 -20 -27 -36
-55 -36 -62 0 -14 -38 -62 -82 -106 -23 -24 -81 -30 -122 -14 -21 8 -54 96
-55 146 -1 62 70 175 170 271 75 71 99 86 116 72 7 -6 11 -13 9 -15z m-2916
-64 c0 -24 -3 -30 -16 -25 -9 3 -37 6 -62 6 -60 0 -81 12 -63 34 10 12 31 16
77 16 l64 0 0 -31z m960 -34 c-24 -25 -46 -45 -47 -45 -11 0 22 42 49 64 49
38 48 32 -2 -19z m785 16 c3 -5 1 -12 -5 -16 -5 -3 -10 1 -10 9 0 18 6 21 15
7z m-759 -43 c-20 -28 -139 -128 -145 -122 -3 2 4 11 15 18 10 8 46 39 79 70
33 30 61 56 63 56 2 0 -4 -10 -12 -22z m224 7 c-7 -8 -17 -15 -22 -15 -11 0
14 29 26 30 5 0 3 -7 -4 -15z m-1207 -40 c0 -16 -4 -73 -7 -125 -4 -52 -2
-166 4 -254 8 -112 8 -162 1 -169 -6 -6 -11 -16 -11 -21 0 -6 19 8 42 29 35
34 38 35 20 10 -38 -53 -85 -103 -72 -76 10 18 9 22 -1 19 -19 -6 -98 -127
-169 -258 -63 -117 -90 -158 -71 -108 25 66 103 205 164 293 57 83 78 117 74
122 -3 2 -24 -23 -47 -57 -23 -34 -50 -70 -59 -79 -41 -42 -140 -231 -176
-336 -38 -111 -47 -123 -41 -50 2 33 7 77 9 98 3 20 2 39 -3 42 -4 2 -6 15 -5
27 1 13 3 33 4 46 1 15 5 21 13 16 7 -5 8 -3 3 6 -13 21 16 119 37 126 13 4
17 11 13 22 -3 8 -1 19 6 22 8 6 8 13 0 29 -11 19 -9 21 14 21 20 0 27 6 32
30 3 17 9 30 14 30 5 0 9 7 9 15 0 21 18 19 23 -2 3 -11 5 -8 6 9 0 15 9 35
20 45 27 27 42 59 34 79 -4 11 -3 15 4 11 10 -7 15 6 28 83 4 19 13 50 22 68
8 19 12 36 9 39 -3 4 -2 11 3 17 5 6 14 45 20 86 12 88 11 89 -74 91 l-60 1
57 12 c32 7 61 16 65 20 4 4 16 6 28 4 15 -2 20 -10 18 -33z m1147 21 c0 -3
-4 -8 -10 -11 -5 -3 -10 -1 -10 4 0 6 5 11 10 11 6 0 10 -2 10 -4z m-1337 -33
c-7 -2 -19 -2 -25 0 -7 3 -2 5 12 5 14 0 19 -2 13 -5z m4555 -82 c11 -7 11 -9
-2 -14 -9 -4 -16 -11 -16 -17 0 -6 5 -8 10 -5 14 9 13 -8 -2 -23 -20 -20 -38
-14 -38 12 0 50 17 67 48 47z m-3691 -8 c-47 -52 -142 -141 -147 -137 -4 5
139 143 149 144 2 0 1 -3 -2 -7z m43 -6 c0 -2 -10 -12 -22 -23 l-23 -19 19 23
c18 21 26 27 26 19z m-52 -44 c-1 -5 -43 -46 -93 -93 l-90 -84 90 92 c85 87
101 102 93 85z m292 -3 c-8 -5 -24 -9 -35 -9 l-20 0 20 9 c11 5 27 9 35 9 13
1 13 0 0 -9z m-75 -20 c-27 -12 -43 -12 -25 0 8 5 22 9 30 9 10 0 8 -3 -5 -9z
m-255 -53 c0 -2 -10 -12 -22 -23 l-23 -19 19 23 c18 21 26 27 26 19z m-186
-106 c-79 -83 -113 -106 -72 -48 35 50 141 152 145 140 2 -6 -31 -47 -73 -92z
m-310 -151 c-21 -27 -40 -50 -41 -50 -8 0 29 62 50 83 37 38 32 21 -9 -33z
m-60 -82 c-4 -7 -17 -26 -29 -43 -12 -16 -45 -73 -74 -125 -59 -109 -53 -98
-110 -184 -24 -36 -45 -66 -47 -66 -12 0 1 26 39 82 24 35 63 99 87 143 54
100 125 205 137 205 2 0 1 -6 -3 -12z m106 -123 c0 -2 -13 -11 -30 -20 -38
-19 -40 -11 -2 9 31 17 32 18 32 11z m-408 -320 c-42 -90 -78 -162 -80 -160
-10 9 139 325 152 325 2 0 -31 -74 -72 -165z m108 10 c-24 -25 -49 -45 -55
-45 -9 1 84 89 95 90 2 0 -16 -20 -40 -45z"/>
<path d="M2395 4860 c3 -5 8 -10 11 -10 2 0 4 5 4 10 0 6 -5 10 -11 10 -5 0
-7 -4 -4 -10z"/>
<path d="M2300 4805 c-10 -12 -8 -21 8 -47 12 -18 29 -42 39 -53 10 -11 34
-41 52 -67 19 -27 38 -48 43 -48 14 0 9 31 -11 59 -11 15 -23 39 -26 54 -4 14
-13 31 -21 38 -8 6 -14 17 -14 23 -1 15 -36 56 -48 56 -5 0 -15 -7 -22 -15z"/>
<path d="M2150 4740 c0 -5 5 -10 10 -10 6 0 10 5 10 10 0 6 -4 10 -10 10 -5 0
-10 -4 -10 -10z"/>
<path d="M2446 4733 c-6 -14 -5 -15 5 -6 7 7 10 15 7 18 -3 3 -9 -2 -12 -12z"/>
<path d="M2150 4650 c0 -11 42 -31 49 -24 5 5 -30 33 -41 34 -5 0 -8 -5 -8
-10z"/>
<path d="M2230 4651 c0 -6 4 -13 10 -16 6 -3 7 1 4 9 -7 18 -14 21 -14 7z"/>
<path d="M2080 4245 c-11 -13 -8 -15 16 -15 16 0 25 4 19 8 -5 4 -13 11 -16
15 -3 4 -12 1 -19 -8z"/>
<path d="M1177 2729 c-43 -39 -82 -81 -88 -93 -7 -11 27 15 73 59 73 69 106
105 95 105 -2 0 -38 -32 -80 -71z"/>
<path d="M4660 3840 c-13 -8 -12 -10 3 -10 9 0 17 5 17 10 0 12 -1 12 -20 0z"/>
<path d="M4577 3324 c-11 -11 63 -34 108 -33 l40 1 -30 13 c-39 17 -109 28
-118 19z"/>
<path d="M6366 3774 c-26 -26 -30 -60 -9 -88 24 -34 65 -34 83 -1 7 14 17 25
22 25 16 0 8 49 -9 58 -39 20 -71 22 -87 6z m60 -66 c-10 -6 -20 -7 -24 -3 -9
8 20 25 31 18 5 -3 2 -10 -7 -15z"/>
<path d="M5565 3757 c-32 -18 -41 -29 -43 -55 -3 -26 1 -34 22 -43 28 -13 61
-7 91 15 19 14 17 15 -25 10 -83 -9 -94 28 -14 46 30 7 41 6 50 -5 12 -16 24
-10 24 11 0 11 -48 45 -62 44 -2 0 -21 -10 -43 -23z"/>
<path d="M6038 3708 c-10 -7 -21 -27 -24 -45 -5 -26 -2 -33 16 -43 27 -14 83
-7 117 15 19 13 23 23 21 48 -3 31 -4 32 -58 35 -34 2 -62 -2 -72 -10z m78
-53 c-27 -21 -53 -20 -36 0 7 8 22 15 34 15 21 -1 21 -1 2 -15z"/>
<path d="M5378 3550 c-33 -26 -41 -50 -29 -84 15 -38 78 -37 122 2 28 25 30
31 22 62 -8 32 -13 35 -49 38 -29 2 -48 -3 -66 -18z m86 -34 c6 -25 -1 -34
-40 -45 -39 -11 -54 -4 -54 23 0 42 84 61 94 22z"/>
<path d="M6216 3516 c-46 -43 -46 -63 1 -83 36 -14 40 -14 83 9 55 29 62 53
23 84 -39 32 -66 30 -107 -10z m109 -5 c7 -12 -32 -34 -46 -26 -5 4 -16 1 -24
-5 -10 -8 -15 -9 -15 -2 0 12 47 41 67 42 6 0 14 -4 18 -9z"/>
<path d="M5915 3402 c-57 -19 -65 -36 -40 -88 20 -42 49 -45 105 -9 34 22 40
30 40 60 0 24 -6 37 -19 45 -25 13 -26 13 -86 -8z m85 -38 c0 -5 -63 -34 -75
-34 -14 0 -2 18 18 28 24 12 57 15 57 6z"/>
<path d="M5509 3312 c-49 -26 -58 -46 -32 -79 15 -20 29 -27 48 -26 43 3 75
29 75 62 0 48 -42 68 -91 43z m60 -63 c-18 -11 -59 -12 -59 -1 0 11 64 29 69
18 2 -4 -3 -12 -10 -17z"/>
<path d="M1515 2560 c3 -5 8 -10 11 -10 2 0 4 5 4 10 0 6 -5 10 -11 10 -5 0
-7 -4 -4 -10z"/>
</g>
</svg>
